<mxfile host="app.diagrams.net" modified="2024-02-26T11:22:03.297Z" agent="Mozilla/5.0 (Windows NT 10.0; Win64; x64) AppleWebKit/537.36 (KHTML, like Gecko) Chrome/121.0.0.0 Safari/537.36 Edg/121.0.0.0" etag="-6E2PYYJo7ey_VDKaCJM" version="23.1.6" type="github">
  <diagram name="第 1 页" id="DiGjYvK5j5gVB0MXpEpa">
    <mxGraphModel dx="1078" dy="1654" grid="1" gridSize="10" guides="1" tooltips="1" connect="1" arrows="1" fold="1" page="1" pageScale="1" pageWidth="827" pageHeight="1169" math="0" shadow="0">
      <root>
        <mxCell id="0" />
        <mxCell id="1" parent="0" />
        <mxCell id="rBaCOdARi4ccgNFdE-XR-1" value="&lt;font style=&quot;font-size: 14px;&quot; data-font-src=&quot;https://fonts.googleapis.com/css?family=Noto+Sans+Simplified+Chinese&quot; face=&quot;Noto Sans Simplified Chinese&quot;&gt;拓扑元素命名与辨识算法库&lt;/font&gt;" style="shape=cylinder3;whiteSpace=wrap;html=1;boundedLbl=1;backgroundOutline=1;size=15;" parent="1" vertex="1">
          <mxGeometry x="320" y="120" width="170" height="90" as="geometry" />
        </mxCell>
        <mxCell id="rBaCOdARi4ccgNFdE-XR-2" value="" style="swimlane;startSize=0;" parent="1" vertex="1">
          <mxGeometry x="80" y="280" width="200" height="200" as="geometry" />
        </mxCell>
        <mxCell id="rBaCOdARi4ccgNFdE-XR-22" value="&lt;font style=&quot;font-size: 14px;&quot; data-font-src=&quot;https://fonts.googleapis.com/css?family=Noto+Sans+Simplified+Chinese&quot; face=&quot;Noto Sans Simplified Chinese&quot;&gt;特征拓扑实体、特征标号&lt;/font&gt;" style="rounded=0;whiteSpace=wrap;html=1;" parent="rBaCOdARi4ccgNFdE-XR-2" vertex="1">
          <mxGeometry x="10" y="50" width="76" height="90" as="geometry" />
        </mxCell>
        <mxCell id="rBaCOdARi4ccgNFdE-XR-23" value="&lt;font style=&quot;font-size: 14px;&quot; data-font-src=&quot;https://fonts.googleapis.com/css?family=Noto+Sans+Simplified+Chinese&quot; face=&quot;Noto Sans Simplified Chinese&quot;&gt;拓扑元素&lt;br&gt;原始名称&lt;/font&gt;" style="rounded=0;whiteSpace=wrap;html=1;" parent="rBaCOdARi4ccgNFdE-XR-2" vertex="1">
          <mxGeometry x="110" y="50" width="76" height="90" as="geometry" />
        </mxCell>
        <mxCell id="rBaCOdARi4ccgNFdE-XR-36" value="" style="shape=flexArrow;endArrow=classic;html=1;rounded=0;exitX=0.75;exitY=0;exitDx=0;exitDy=0;" parent="rBaCOdARi4ccgNFdE-XR-2" source="rBaCOdARi4ccgNFdE-XR-2" edge="1">
          <mxGeometry width="50" height="50" relative="1" as="geometry">
            <mxPoint x="60" y="-30" as="sourcePoint" />
            <mxPoint x="150" y="50" as="targetPoint" />
          </mxGeometry>
        </mxCell>
        <mxCell id="rBaCOdARi4ccgNFdE-XR-38" value="" style="shape=flexArrow;endArrow=classic;html=1;rounded=0;entryX=0.25;entryY=0;entryDx=0;entryDy=0;" parent="rBaCOdARi4ccgNFdE-XR-2" source="rBaCOdARi4ccgNFdE-XR-22" target="rBaCOdARi4ccgNFdE-XR-2" edge="1">
          <mxGeometry width="50" height="50" relative="1" as="geometry">
            <mxPoint x="20" y="80" as="sourcePoint" />
            <mxPoint x="70" y="30" as="targetPoint" />
          </mxGeometry>
        </mxCell>
        <mxCell id="rBaCOdARi4ccgNFdE-XR-3" value="" style="swimlane;startSize=0;" parent="1" vertex="1">
          <mxGeometry x="295.5" y="280" width="219" height="200" as="geometry" />
        </mxCell>
        <mxCell id="rBaCOdARi4ccgNFdE-XR-18" value="&lt;font style=&quot;font-size: 14px;&quot; data-font-src=&quot;https://fonts.googleapis.com/css?family=Noto+Sans+Simplified+Chinese&quot; face=&quot;Noto Sans Simplified Chinese&quot;&gt;拓扑元素&lt;br&gt;引用名&lt;/font&gt;" style="rounded=0;whiteSpace=wrap;html=1;" parent="rBaCOdARi4ccgNFdE-XR-3" vertex="1">
          <mxGeometry x="124.5" y="50" width="75" height="90" as="geometry" />
        </mxCell>
        <mxCell id="rBaCOdARi4ccgNFdE-XR-19" value="&lt;font style=&quot;font-size: 14px;&quot; data-font-src=&quot;https://fonts.googleapis.com/css?family=Noto+Sans+Simplified+Chinese&quot; face=&quot;Noto Sans Simplified Chinese&quot;&gt;引用的拓扑元素、特征信息&lt;/font&gt;" style="rounded=0;whiteSpace=wrap;html=1;" parent="rBaCOdARi4ccgNFdE-XR-3" vertex="1">
          <mxGeometry x="14.5" y="50" width="76" height="90" as="geometry" />
        </mxCell>
        <mxCell id="rBaCOdARi4ccgNFdE-XR-26" value="" style="shape=flexArrow;endArrow=classic;html=1;rounded=0;exitX=0.5;exitY=0;exitDx=0;exitDy=0;" parent="rBaCOdARi4ccgNFdE-XR-3" source="rBaCOdARi4ccgNFdE-XR-19" edge="1">
          <mxGeometry width="50" height="50" relative="1" as="geometry">
            <mxPoint x="24.5" y="30" as="sourcePoint" />
            <mxPoint x="52.5" as="targetPoint" />
          </mxGeometry>
        </mxCell>
        <mxCell id="rBaCOdARi4ccgNFdE-XR-27" value="" style="shape=flexArrow;endArrow=classic;html=1;rounded=0;exitX=0.75;exitY=0;exitDx=0;exitDy=0;" parent="rBaCOdARi4ccgNFdE-XR-3" source="rBaCOdARi4ccgNFdE-XR-3" edge="1">
          <mxGeometry width="50" height="50" relative="1" as="geometry">
            <mxPoint x="114.5" y="180" as="sourcePoint" />
            <mxPoint x="164.5" y="50" as="targetPoint" />
          </mxGeometry>
        </mxCell>
        <mxCell id="rBaCOdARi4ccgNFdE-XR-5" value="" style="shape=flexArrow;endArrow=classic;startArrow=classic;html=1;rounded=0;entryX=0;entryY=1;entryDx=0;entryDy=-15;entryPerimeter=0;exitX=0.5;exitY=0;exitDx=0;exitDy=0;" parent="1" source="rBaCOdARi4ccgNFdE-XR-2" target="rBaCOdARi4ccgNFdE-XR-1" edge="1">
          <mxGeometry width="100" height="100" relative="1" as="geometry">
            <mxPoint x="150" y="270" as="sourcePoint" />
            <mxPoint x="250" y="160" as="targetPoint" />
          </mxGeometry>
        </mxCell>
        <mxCell id="rBaCOdARi4ccgNFdE-XR-10" value="" style="swimlane;startSize=0;" parent="1" vertex="1">
          <mxGeometry x="530" y="280" width="200" height="200" as="geometry" />
        </mxCell>
        <mxCell id="rBaCOdARi4ccgNFdE-XR-21" value="&lt;font style=&quot;font-size: 14px;&quot; data-font-src=&quot;https://fonts.googleapis.com/css?family=Noto+Sans+Simplified+Chinese&quot; face=&quot;Noto Sans Simplified Chinese&quot;&gt;拓扑元素引用名、特征信息&lt;/font&gt;" style="rounded=0;whiteSpace=wrap;html=1;" parent="rBaCOdARi4ccgNFdE-XR-10" vertex="1">
          <mxGeometry x="20" y="50" width="76" height="90" as="geometry" />
        </mxCell>
        <mxCell id="rBaCOdARi4ccgNFdE-XR-20" value="&lt;font style=&quot;font-size: 14px;&quot; data-font-src=&quot;https://fonts.googleapis.com/css?family=Noto+Sans+Simplified+Chinese&quot; face=&quot;Noto Sans Simplified Chinese&quot;&gt;引用的&lt;br&gt;拓扑元素&lt;/font&gt;" style="rounded=0;whiteSpace=wrap;html=1;" parent="rBaCOdARi4ccgNFdE-XR-10" vertex="1">
          <mxGeometry x="120" y="50" width="75" height="90" as="geometry" />
        </mxCell>
        <mxCell id="rBaCOdARi4ccgNFdE-XR-28" value="" style="shape=flexArrow;endArrow=classic;html=1;rounded=0;entryX=0.287;entryY=-0.001;entryDx=0;entryDy=0;entryPerimeter=0;" parent="rBaCOdARi4ccgNFdE-XR-10" source="rBaCOdARi4ccgNFdE-XR-21" target="rBaCOdARi4ccgNFdE-XR-10" edge="1">
          <mxGeometry width="50" height="50" relative="1" as="geometry">
            <mxPoint x="30" y="70" as="sourcePoint" />
            <mxPoint x="60" as="targetPoint" />
          </mxGeometry>
        </mxCell>
        <mxCell id="rBaCOdARi4ccgNFdE-XR-34" value="" style="shape=flexArrow;endArrow=classic;html=1;rounded=0;exitX=0.8;exitY=0.004;exitDx=0;exitDy=0;exitPerimeter=0;" parent="rBaCOdARi4ccgNFdE-XR-10" source="rBaCOdARi4ccgNFdE-XR-10" edge="1">
          <mxGeometry width="50" height="50" relative="1" as="geometry">
            <mxPoint x="260" y="100" as="sourcePoint" />
            <mxPoint x="160" y="50" as="targetPoint" />
          </mxGeometry>
        </mxCell>
        <mxCell id="rBaCOdARi4ccgNFdE-XR-11" value="" style="swimlane;startSize=0;" parent="1" vertex="1">
          <mxGeometry x="305" y="-140" width="200" height="200" as="geometry" />
        </mxCell>
        <mxCell id="rBaCOdARi4ccgNFdE-XR-44" value="&lt;font style=&quot;font-size: 14px;&quot; face=&quot;Noto Sans Simplified Chinese&quot;&gt;合并前拓扑元素名称、特征名称&lt;/font&gt;" style="rounded=0;whiteSpace=wrap;html=1;" parent="rBaCOdARi4ccgNFdE-XR-11" vertex="1">
          <mxGeometry x="5" y="50" width="76" height="90" as="geometry" />
        </mxCell>
        <mxCell id="rBaCOdARi4ccgNFdE-XR-45" value="&lt;font style=&quot;font-size: 14px;&quot; face=&quot;Noto Sans Simplified Chinese&quot;&gt;合并后、新生拓扑元素的名称&lt;/font&gt;" style="rounded=0;whiteSpace=wrap;html=1;" parent="rBaCOdARi4ccgNFdE-XR-11" vertex="1">
          <mxGeometry x="109" y="50" width="76" height="90" as="geometry" />
        </mxCell>
        <mxCell id="rBaCOdARi4ccgNFdE-XR-46" value="" style="shape=flexArrow;endArrow=classic;html=1;rounded=0;exitX=0.5;exitY=1;exitDx=0;exitDy=0;entryX=0.217;entryY=1;entryDx=0;entryDy=0;entryPerimeter=0;" parent="rBaCOdARi4ccgNFdE-XR-11" source="rBaCOdARi4ccgNFdE-XR-44" target="rBaCOdARi4ccgNFdE-XR-11" edge="1">
          <mxGeometry width="50" height="50" relative="1" as="geometry">
            <mxPoint x="25" y="230" as="sourcePoint" />
            <mxPoint x="75" y="180" as="targetPoint" />
          </mxGeometry>
        </mxCell>
        <mxCell id="rBaCOdARi4ccgNFdE-XR-48" value="" style="shape=flexArrow;endArrow=classic;html=1;rounded=0;entryX=0.5;entryY=1;entryDx=0;entryDy=0;" parent="rBaCOdARi4ccgNFdE-XR-11" target="rBaCOdARi4ccgNFdE-XR-45" edge="1">
          <mxGeometry width="50" height="50" relative="1" as="geometry">
            <mxPoint x="147" y="200" as="sourcePoint" />
            <mxPoint x="195" y="230" as="targetPoint" />
          </mxGeometry>
        </mxCell>
        <mxCell id="rBaCOdARi4ccgNFdE-XR-12" value="" style="shape=flexArrow;endArrow=classic;startArrow=classic;html=1;rounded=0;entryX=0.5;entryY=1;entryDx=0;entryDy=0;entryPerimeter=0;" parent="1" source="rBaCOdARi4ccgNFdE-XR-3" target="rBaCOdARi4ccgNFdE-XR-1" edge="1">
          <mxGeometry width="100" height="100" relative="1" as="geometry">
            <mxPoint x="360" y="410" as="sourcePoint" />
            <mxPoint x="460" y="310" as="targetPoint" />
          </mxGeometry>
        </mxCell>
        <mxCell id="rBaCOdARi4ccgNFdE-XR-13" value="" style="shape=flexArrow;endArrow=classic;startArrow=classic;html=1;rounded=0;entryX=1;entryY=1;entryDx=0;entryDy=-15;entryPerimeter=0;exitX=0.5;exitY=0;exitDx=0;exitDy=0;" parent="1" source="rBaCOdARi4ccgNFdE-XR-10" target="rBaCOdARi4ccgNFdE-XR-1" edge="1">
          <mxGeometry width="100" height="100" relative="1" as="geometry">
            <mxPoint x="560" y="330" as="sourcePoint" />
            <mxPoint x="660" y="230" as="targetPoint" />
          </mxGeometry>
        </mxCell>
        <mxCell id="rBaCOdARi4ccgNFdE-XR-14" value="" style="shape=flexArrow;endArrow=classic;startArrow=classic;html=1;rounded=0;entryX=0.5;entryY=1;entryDx=0;entryDy=0;" parent="1" source="rBaCOdARi4ccgNFdE-XR-1" target="rBaCOdARi4ccgNFdE-XR-11" edge="1">
          <mxGeometry width="100" height="100" relative="1" as="geometry">
            <mxPoint x="230" y="190" as="sourcePoint" />
            <mxPoint x="330" y="90" as="targetPoint" />
          </mxGeometry>
        </mxCell>
        <mxCell id="rBaCOdARi4ccgNFdE-XR-15" value="&lt;font style=&quot;font-size: 14px;&quot; data-font-src=&quot;https://fonts.googleapis.com/css?family=Noto+Sans+Simplified+Chinese&quot; face=&quot;Noto Sans Simplified Chinese&quot;&gt;原始名生成算法&lt;/font&gt;" style="text;html=1;align=center;verticalAlign=middle;resizable=0;points=[];autosize=1;strokeColor=none;fillColor=none;" parent="1" vertex="1">
          <mxGeometry x="255" y="230" width="120" height="30" as="geometry" />
        </mxCell>
        <mxCell id="rBaCOdARi4ccgNFdE-XR-16" value="&lt;font style=&quot;font-size: 14px;&quot; face=&quot;Noto Sans Simplified Chinese&quot;&gt;引用名生成算法&lt;/font&gt;" style="text;html=1;align=center;verticalAlign=middle;resizable=0;points=[];autosize=1;strokeColor=none;fillColor=none;" parent="1" vertex="1">
          <mxGeometry x="409" y="230" width="120" height="30" as="geometry" />
        </mxCell>
        <mxCell id="rBaCOdARi4ccgNFdE-XR-17" value="&lt;font style=&quot;font-size: 14px;&quot; data-font-src=&quot;https://fonts.googleapis.com/css?family=Noto+Sans+Simplified+Chinese&quot; face=&quot;Noto Sans Simplified Chinese&quot;&gt;引用名辨识算法&lt;/font&gt;" style="text;html=1;align=center;verticalAlign=middle;resizable=0;points=[];autosize=1;strokeColor=none;fillColor=none;" parent="1" vertex="1">
          <mxGeometry x="575" y="230" width="120" height="30" as="geometry" />
        </mxCell>
        <mxCell id="rBaCOdARi4ccgNFdE-XR-50" value="&lt;font style=&quot;font-size: 14px;&quot; face=&quot;Noto Sans Simplified Chinese&quot;&gt;属性传递处理算法&lt;/font&gt;" style="text;html=1;align=center;verticalAlign=middle;resizable=0;points=[];autosize=1;strokeColor=none;fillColor=none;" parent="1" vertex="1">
          <mxGeometry x="404" y="78" width="140" height="30" as="geometry" />
        </mxCell>
      </root>
    </mxGraphModel>
  </diagram>
</mxfile>
